<mxfile host="app.diagrams.net" modified="2023-11-24T15:09:06.675Z" agent="Mozilla/5.0 (Macintosh; Intel Mac OS X 10_15_7) AppleWebKit/605.1.15 (KHTML, like Gecko) Version/16.6 Safari/605.1.15" version="22.1.3" etag="vEJbw9KG79f4d2dI2kNr" type="github">
  <diagram name="第 1 页" id="jPokO9vm6nNQa8gwOQ2t">
    <mxGraphModel>
      <root>
        <mxCell id="0" />
        <mxCell id="1" parent="0" />
      </root>
    </mxGraphModel>
  </diagram>
</mxfile>
